<svg xmlns="http://www.w3.org/2000/svg" xmlns:xlink="http://www.w3.org/1999/xlink" viewBox="0 0 540 90.62"><defs><style>.cls-1{fill:url(#Degradado_sin_nombre_34);}.cls-2{fill:url(#Degradado_sin_nombre_34-2);}.cls-3{fill:url(#Degradado_sin_nombre_34-3);}.cls-4{fill:url(#Degradado_sin_nombre_34-4);}.cls-5{fill:url(#Degradado_sin_nombre_34-12);}.cls-6{fill:url(#Degradado_sin_nombre_34-14);}.cls-7{fill:url(#Degradado_sin_nombre_34-32);}</style><linearGradient id="Degradado_sin_nombre_34" y1="257.72" x2="540" y2="257.72" gradientTransform="matrix(1, 0, 0, -1, 0, 312.34)" gradientUnits="userSpaceOnUse"><stop offset="0" stop-color="#2b3645"/><stop offset="0.01" stop-color="#2b3646"/><stop offset="0.28" stop-color="#304267"/><stop offset="0.54" stop-color="#344a7e"/><stop offset="0.79" stop-color="#364f8c"/><stop offset="1" stop-color="#375191"/></linearGradient><linearGradient id="Degradado_sin_nombre_34-2" x1="560.43" y1="84.68" x2="23.88" y2="84.68" gradientTransform="matrix(1, 0, 0, 1, 0, 0)" xlink:href="#Degradado_sin_nombre_34"/><linearGradient id="Degradado_sin_nombre_34-3" x1="560.43" y1="83.22" x2="23.88" y2="83.22" gradientTransform="matrix(1, 0, 0, 1, 0, 0)" xlink:href="#Degradado_sin_nombre_34"/><linearGradient id="Degradado_sin_nombre_34-4" x1="560.43" y1="83.16" x2="23.88" y2="83.16" gradientTransform="matrix(1, 0, 0, 1, 0, 0)" xlink:href="#Degradado_sin_nombre_34"/><linearGradient id="Degradado_sin_nombre_34-12" x1="546.13" y1="83.16" x2="9.57" y2="83.16" gradientTransform="matrix(1, 0, 0, 1, 0, 0)" xlink:href="#Degradado_sin_nombre_34"/><linearGradient id="Degradado_sin_nombre_34-14" x1="-106.02" y1="3.4" x2="548.67" y2="3.4" gradientTransform="matrix(1, 0, 0, 1, 0, 0)" xlink:href="#Degradado_sin_nombre_34"/><linearGradient id="Degradado_sin_nombre_34-32" x1="-106.02" y1="3.45" x2="548.67" y2="3.45" gradientTransform="matrix(1, 0, 0, 1, 0, 0)" xlink:href="#Degradado_sin_nombre_34"/></defs><title>JuanmaRecurso 4</title><g id="Capa_2" data-name="Capa 2"><g id="Capa_1-2" data-name="Capa 1"><rect class="cls-1" y="54.12" width="540" height="1"/><path class="cls-2" d="M160.08,78.75v8.93c0,1.53-.77,2.26-2,2.94l-.55-.79a2.36,2.36,0,0,0,1.37-2.21V78.75Z"/><path class="cls-3" d="M179.78,78.75v6.18c0,1.71-1.34,2.77-3.19,2.77s-3.19-1.06-3.19-2.77V78.75h1.21v6.17a2,2,0,0,0,4,0V78.75Z"/><path class="cls-4" d="M198.36,87.57l-.69-2.18h-3.58l-.69,2.18h-1.28L195,78.75h1.76l2.88,8.82Zm-4-3.19h3l-1.48-4.71Z"/><path class="cls-4" d="M213.32,80.77v6.8h-1.2V78.75h1.27l4.13,6.79V78.75h1.21v8.82h-1.27Z"/><path class="cls-4" d="M239.37,80.68l-2.63,5.76h-.82l-2.63-5.76v6.89h-1.17V78.75h1.46l2.74,6.12,2.77-6.12h1.45v8.82h-1.17Z"/><path class="cls-4" d="M259.16,87.57l-.69-2.18h-3.58l-.69,2.18h-1.28l2.88-8.82h1.75l2.89,8.82Zm-4-3.19h3l-1.49-4.71Z"/><path class="cls-4" d="M288.18,84.51v3.06H287V78.75h2.91a2.66,2.66,0,0,1,2.93,2.57v.59a2.67,2.67,0,0,1-2.93,2.6Zm0-4.77v3.78h1.61a1.62,1.62,0,0,0,1.84-1.7v-.41a1.61,1.61,0,0,0-1.84-1.67Z"/><path class="cls-4" d="M306.8,86.53h3.84v1h-5V78.75h1.2Z"/><path class="cls-3" d="M329.39,78.75v6.18c0,1.71-1.33,2.77-3.19,2.77S323,86.64,323,84.93V78.75h1.2v6.17a2,2,0,0,0,4,0V78.75Z"/><path class="cls-4" d="M348.31,87.18a6.61,6.61,0,0,1-2.65.52,3,3,0,0,1-3.28-3v-3c0-2,1.54-3.09,3.5-3.09a6.21,6.21,0,0,1,2.35.44l-.24,1a6.6,6.6,0,0,0-2-.37c-1.55,0-2.41.78-2.41,2.12v2.85c0,1.34.82,2,2.26,2a4.85,4.85,0,0,0,1.34-.17V83.33h1.14Z"/><path class="cls-5" d="M362.5,87.57h-1.21V78.75h1.21Z"/><path class="cls-5" d="M377.09,80.77v6.8h-1.2V78.75h1.27l4.14,6.79V78.75h1.2v8.82h-1.27Z"/><path class="cls-6" d="M72.26.1h2.1a2.21,2.21,0,0,1,2.36,2.12V4.59a2.1,2.1,0,0,1-2.36,2.12h-2.1Zm3.61,2.19A1.42,1.42,0,0,0,74.28.84H73.13V6h1.15c1,0,1.59-.53,1.59-1.45Z"/><path class="cls-6" d="M83.29.1A1.94,1.94,0,0,1,85.4,2v.34a1.84,1.84,0,0,1-1.33,1.82l1.35,2.52h-1l-1.24-2.4H82v2.4h-.87V.1ZM82,.84V3.57h1.21A1.18,1.18,0,0,0,84.54,2.3V2.09A1.17,1.17,0,0,0,83.22.84Z"/><path class="cls-6" d="M90.56,6.71h-.87V.1h.87Z"/><path class="cls-6" d="M99.89.1l-2,6.61H96.6L94.56.1h.91l1.75,5.74L99,.1Z"/><path class="cls-6" d="M103.89.1h3.75V.88h-2.88V3h2.78v.78h-2.78V5.93h3v.78h-3.85Z"/><path class="cls-6" d="M192.67.1A2,2,0,0,1,194.78,2v.34a1.84,1.84,0,0,1-1.33,1.82l1.34,2.52h-1l-1.24-2.4h-1.2v2.4h-.87V.1Zm-1.28.74V3.57h1.21a1.19,1.19,0,0,0,1.32-1.27V2.09A1.18,1.18,0,0,0,192.6.84Z"/><path class="cls-6" d="M202.91,6.71l-.5-1.64h-2.59l-.49,1.64h-.93L200.48.1h1.27l2.08,6.61Zm-2.86-2.39h2.13L201.11.79Z"/><path class="cls-6" d="M208.7,1.62V6.71h-.87V.1h.92l3,5.09V.1h.87V6.71h-.92Z"/><path class="cls-6" d="M221.29,6.42a4.59,4.59,0,0,1-1.91.39A2.18,2.18,0,0,1,217,4.58V2.31A2.27,2.27,0,0,1,219.54,0a4.31,4.31,0,0,1,1.69.33l-.17.74A4.67,4.67,0,0,0,219.62.8c-1.12,0-1.74.58-1.74,1.58V4.52c0,1,.59,1.49,1.63,1.49a3.08,3.08,0,0,0,1-.14V3.54h.82Z"/><path class="cls-6" d="M225.64.1h3.74V.88h-2.87V3h2.77v.78h-2.77V5.93h3v.78h-3.84Z"/><path class="cls-6" d="M311,6.71V.1h2.16c1.28,0,1.9.66,1.9,1.76a1.45,1.45,0,0,1-.95,1.42,1.67,1.67,0,0,1,1.21,1.57c0,1.24-.88,1.86-2.13,1.86Zm3.21-4.83c0-.67-.37-1-1.15-1h-1.19V3h1.25A1,1,0,0,0,314.2,1.88ZM313,3.64h-1.17V6h1.2c.86,0,1.39-.38,1.39-1.18S313.87,3.64,313,3.64Z"/><path class="cls-6" d="M320.35,5.93h2.77v.78h-3.64V.1h.87Z"/><path class="cls-6" d="M327.14.1h3.75V.88H328V3h2.77v.78H328V5.93h3v.78h-3.85Z"/><path class="cls-6" d="M336,1.62V6.71h-.87V.1H336l3,5.09V.1h.86V6.71H339Z"/><path class="cls-6" d="M344.54.1h2.1A2.21,2.21,0,0,1,349,2.22V4.59a2.11,2.11,0,0,1-2.37,2.12h-2.1Zm3.61,2.19A1.42,1.42,0,0,0,346.56.84h-1.15V6h1.15c1,0,1.59-.53,1.59-1.45Z"/><path class="cls-6" d="M430.58.1l-2,6.61h-1.25l-2-6.61h.91l1.76,5.74L429.67.1Z"/><path class="cls-6" d="M434.29,2.22a2.39,2.39,0,0,1,4.76,0V4.59a2.39,2.39,0,0,1-4.76,0Zm.86,2.3a1.52,1.52,0,1,0,3,0V2.29a1.52,1.52,0,1,0-3,0Z"/><path class="cls-6" d="M444.33,5.93h2.77v.78h-3.64V.1h.87Z"/><path class="cls-7" d="M455.63.1V4.73a2.31,2.31,0,0,1-4.6,0V.1h.87V4.72a1.43,1.43,0,0,0,2.86,0V.1Z"/><path class="cls-6" d="M465.47,1.55l-1.9,4.31H463l-1.9-4.31V6.71h-.84V.1h1.05l2,4.58,2-4.58h1.05V6.71h-.84Z"/><path class="cls-6" d="M470.9.1h3.75V.88h-2.88V3h2.78v.78h-2.78V5.93h3v.78H470.9Z"/></g></g></svg>